<mxfile host="app.diagrams.net" modified="2021-09-14T01:56:11.332Z" agent="5.0 (Windows NT 10.0; Win64; x64) AppleWebKit/537.36 (KHTML, like Gecko) Chrome/93.0.4577.63 Safari/537.36" etag="6bkDIqX6zkvQOvfHYpv0" version="15.2.5" type="github">
  <diagram id="C5RBs43oDa-KdzZeNtuy" name="Page-1">
    <mxGraphModel dx="1719" dy="762" grid="1" gridSize="10" guides="1" tooltips="1" connect="1" arrows="1" fold="1" page="1" pageScale="1" pageWidth="827" pageHeight="1169" math="0" shadow="0">
      <root>
        <mxCell id="WIyWlLk6GJQsqaUBKTNV-0" />
        <mxCell id="WIyWlLk6GJQsqaUBKTNV-1" parent="WIyWlLk6GJQsqaUBKTNV-0" />
        <mxCell id="WIyWlLk6GJQsqaUBKTNV-2" value="" style="rounded=0;html=1;jettySize=auto;orthogonalLoop=1;fontSize=11;endArrow=block;endFill=0;endSize=8;strokeWidth=1;shadow=0;labelBackgroundColor=none;edgeStyle=orthogonalEdgeStyle;" parent="WIyWlLk6GJQsqaUBKTNV-1" source="WIyWlLk6GJQsqaUBKTNV-3" edge="1">
          <mxGeometry relative="1" as="geometry">
            <mxPoint x="220" y="190" as="targetPoint" />
          </mxGeometry>
        </mxCell>
        <mxCell id="WIyWlLk6GJQsqaUBKTNV-3" value="Inicio" style="rounded=1;whiteSpace=wrap;html=1;fontSize=12;glass=0;strokeWidth=1;shadow=0;" parent="WIyWlLk6GJQsqaUBKTNV-1" vertex="1">
          <mxGeometry x="160" y="80" width="120" height="40" as="geometry" />
        </mxCell>
        <mxCell id="2Kkhe6lRTWmixyDbJk0q-2" style="edgeStyle=orthogonalEdgeStyle;rounded=0;orthogonalLoop=1;jettySize=auto;html=1;" edge="1" parent="WIyWlLk6GJQsqaUBKTNV-1">
          <mxGeometry relative="1" as="geometry">
            <mxPoint x="280" y="220" as="sourcePoint" />
            <mxPoint x="280" y="240" as="targetPoint" />
          </mxGeometry>
        </mxCell>
        <mxCell id="2Kkhe6lRTWmixyDbJk0q-3" style="edgeStyle=orthogonalEdgeStyle;rounded=0;orthogonalLoop=1;jettySize=auto;html=1;entryX=0.5;entryY=0;entryDx=0;entryDy=0;" edge="1" parent="WIyWlLk6GJQsqaUBKTNV-1">
          <mxGeometry relative="1" as="geometry">
            <mxPoint x="220" y="200" as="sourcePoint" />
            <mxPoint x="220" y="200" as="targetPoint" />
          </mxGeometry>
        </mxCell>
        <mxCell id="2Kkhe6lRTWmixyDbJk0q-5" value="" style="edgeStyle=orthogonalEdgeStyle;rounded=0;orthogonalLoop=1;jettySize=auto;html=1;" edge="1" parent="WIyWlLk6GJQsqaUBKTNV-1" source="2Kkhe6lRTWmixyDbJk0q-4" target="WIyWlLk6GJQsqaUBKTNV-3">
          <mxGeometry relative="1" as="geometry" />
        </mxCell>
        <mxCell id="2Kkhe6lRTWmixyDbJk0q-4" value="" style="shape=parallelogram;perimeter=parallelogramPerimeter;whiteSpace=wrap;html=1;fixedSize=1;" vertex="1" parent="WIyWlLk6GJQsqaUBKTNV-1">
          <mxGeometry x="120" y="180" width="200" height="80" as="geometry" />
        </mxCell>
        <mxCell id="2Kkhe6lRTWmixyDbJk0q-6" value="calificaciones = []&lt;br&gt;calificacionesPrompt" style="text;html=1;strokeColor=none;fillColor=none;align=center;verticalAlign=middle;whiteSpace=wrap;rounded=0;" vertex="1" parent="WIyWlLk6GJQsqaUBKTNV-1">
          <mxGeometry x="160" y="197.5" width="120" height="45" as="geometry" />
        </mxCell>
        <mxCell id="2Kkhe6lRTWmixyDbJk0q-7" value="" style="rhombus;whiteSpace=wrap;html=1;" vertex="1" parent="WIyWlLk6GJQsqaUBKTNV-1">
          <mxGeometry x="150" y="310" width="140" height="130" as="geometry" />
        </mxCell>
        <mxCell id="2Kkhe6lRTWmixyDbJk0q-8" value="true" style="text;html=1;strokeColor=none;fillColor=none;align=center;verticalAlign=middle;whiteSpace=wrap;rounded=0;" vertex="1" parent="WIyWlLk6GJQsqaUBKTNV-1">
          <mxGeometry x="180" y="360" width="80" height="30" as="geometry" />
        </mxCell>
        <mxCell id="2Kkhe6lRTWmixyDbJk0q-13" value="" style="endArrow=none;html=1;exitX=0.5;exitY=1;exitDx=0;exitDy=0;" edge="1" parent="WIyWlLk6GJQsqaUBKTNV-1" source="2Kkhe6lRTWmixyDbJk0q-7">
          <mxGeometry width="50" height="50" relative="1" as="geometry">
            <mxPoint x="340" y="390" as="sourcePoint" />
            <mxPoint x="220" y="480" as="targetPoint" />
          </mxGeometry>
        </mxCell>
        <mxCell id="2Kkhe6lRTWmixyDbJk0q-14" value="" style="endArrow=none;html=1;entryX=0.5;entryY=0;entryDx=0;entryDy=0;exitX=0.5;exitY=1;exitDx=0;exitDy=0;" edge="1" parent="WIyWlLk6GJQsqaUBKTNV-1" source="2Kkhe6lRTWmixyDbJk0q-4" target="2Kkhe6lRTWmixyDbJk0q-7">
          <mxGeometry width="50" height="50" relative="1" as="geometry">
            <mxPoint x="100" y="410" as="sourcePoint" />
            <mxPoint x="150" y="360" as="targetPoint" />
          </mxGeometry>
        </mxCell>
        <mxCell id="2Kkhe6lRTWmixyDbJk0q-15" value="" style="shape=process;whiteSpace=wrap;html=1;backgroundOutline=1;" vertex="1" parent="WIyWlLk6GJQsqaUBKTNV-1">
          <mxGeometry x="120" y="480" width="210" height="100" as="geometry" />
        </mxCell>
        <mxCell id="2Kkhe6lRTWmixyDbJk0q-16" value="calificacionesPrompt =input()&amp;nbsp;" style="text;html=1;strokeColor=none;fillColor=none;align=center;verticalAlign=middle;whiteSpace=wrap;rounded=0;" vertex="1" parent="WIyWlLk6GJQsqaUBKTNV-1">
          <mxGeometry x="140" y="500" width="170" height="50" as="geometry" />
        </mxCell>
        <mxCell id="2Kkhe6lRTWmixyDbJk0q-38" style="edgeStyle=orthogonalEdgeStyle;rounded=0;orthogonalLoop=1;jettySize=auto;html=1;exitX=0.5;exitY=1;exitDx=0;exitDy=0;" edge="1" parent="WIyWlLk6GJQsqaUBKTNV-1" source="2Kkhe6lRTWmixyDbJk0q-18" target="2Kkhe6lRTWmixyDbJk0q-37">
          <mxGeometry relative="1" as="geometry" />
        </mxCell>
        <mxCell id="2Kkhe6lRTWmixyDbJk0q-43" style="edgeStyle=orthogonalEdgeStyle;rounded=0;orthogonalLoop=1;jettySize=auto;html=1;entryX=0.5;entryY=0;entryDx=0;entryDy=0;" edge="1" parent="WIyWlLk6GJQsqaUBKTNV-1" source="2Kkhe6lRTWmixyDbJk0q-18" target="2Kkhe6lRTWmixyDbJk0q-24">
          <mxGeometry relative="1" as="geometry" />
        </mxCell>
        <mxCell id="2Kkhe6lRTWmixyDbJk0q-18" value="" style="rhombus;whiteSpace=wrap;html=1;" vertex="1" parent="WIyWlLk6GJQsqaUBKTNV-1">
          <mxGeometry x="130" y="650" width="180" height="150" as="geometry" />
        </mxCell>
        <mxCell id="2Kkhe6lRTWmixyDbJk0q-19" value="" style="endArrow=none;html=1;exitX=0.5;exitY=0;exitDx=0;exitDy=0;" edge="1" parent="WIyWlLk6GJQsqaUBKTNV-1" source="2Kkhe6lRTWmixyDbJk0q-18">
          <mxGeometry width="50" height="50" relative="1" as="geometry">
            <mxPoint x="100" y="400" as="sourcePoint" />
            <mxPoint x="220" y="580" as="targetPoint" />
          </mxGeometry>
        </mxCell>
        <mxCell id="2Kkhe6lRTWmixyDbJk0q-30" style="edgeStyle=orthogonalEdgeStyle;rounded=0;orthogonalLoop=1;jettySize=auto;html=1;entryX=0;entryY=0.5;entryDx=0;entryDy=0;exitX=0;exitY=0.5;exitDx=0;exitDy=0;" edge="1" parent="WIyWlLk6GJQsqaUBKTNV-1" source="2Kkhe6lRTWmixyDbJk0q-37" target="2Kkhe6lRTWmixyDbJk0q-7">
          <mxGeometry relative="1" as="geometry">
            <mxPoint x="20" y="360" as="targetPoint" />
            <mxPoint x="150" y="900" as="sourcePoint" />
            <Array as="points">
              <mxPoint x="20" y="890" />
              <mxPoint x="20" y="375" />
            </Array>
          </mxGeometry>
        </mxCell>
        <mxCell id="2Kkhe6lRTWmixyDbJk0q-20" value="calificacionesPrompt =&#39;fin&#39;&lt;br&gt;false" style="text;html=1;strokeColor=none;fillColor=none;align=center;verticalAlign=middle;whiteSpace=wrap;rounded=0;" vertex="1" parent="WIyWlLk6GJQsqaUBKTNV-1">
          <mxGeometry x="145" y="690" width="150" height="70" as="geometry" />
        </mxCell>
        <mxCell id="2Kkhe6lRTWmixyDbJk0q-24" value="" style="shape=process;whiteSpace=wrap;html=1;backgroundOutline=1;" vertex="1" parent="WIyWlLk6GJQsqaUBKTNV-1">
          <mxGeometry x="340" y="987.5" width="180" height="95" as="geometry" />
        </mxCell>
        <mxCell id="2Kkhe6lRTWmixyDbJk0q-27" value="alert(&#39;la calificacion&#39;)&lt;br&gt;calcularPromedio(calif)" style="text;html=1;strokeColor=none;fillColor=none;align=center;verticalAlign=middle;whiteSpace=wrap;rounded=0;" vertex="1" parent="WIyWlLk6GJQsqaUBKTNV-1">
          <mxGeometry x="360" y="1000" width="140" height="70" as="geometry" />
        </mxCell>
        <mxCell id="2Kkhe6lRTWmixyDbJk0q-31" value="no" style="text;html=1;strokeColor=none;fillColor=none;align=center;verticalAlign=middle;whiteSpace=wrap;rounded=0;" vertex="1" parent="WIyWlLk6GJQsqaUBKTNV-1">
          <mxGeometry x="220" y="810" width="40" height="20" as="geometry" />
        </mxCell>
        <mxCell id="2Kkhe6lRTWmixyDbJk0q-32" value="si" style="text;html=1;strokeColor=none;fillColor=none;align=center;verticalAlign=middle;whiteSpace=wrap;rounded=0;" vertex="1" parent="WIyWlLk6GJQsqaUBKTNV-1">
          <mxGeometry x="380" y="740" width="40" height="20" as="geometry" />
        </mxCell>
        <mxCell id="2Kkhe6lRTWmixyDbJk0q-35" style="edgeStyle=orthogonalEdgeStyle;rounded=0;orthogonalLoop=1;jettySize=auto;html=1;entryX=0.5;entryY=0;entryDx=0;entryDy=0;" edge="1" parent="WIyWlLk6GJQsqaUBKTNV-1" source="2Kkhe6lRTWmixyDbJk0q-33" target="2Kkhe6lRTWmixyDbJk0q-34">
          <mxGeometry relative="1" as="geometry">
            <Array as="points">
              <mxPoint x="595" y="230" />
            </Array>
          </mxGeometry>
        </mxCell>
        <mxCell id="2Kkhe6lRTWmixyDbJk0q-33" value="calcularPromedio(lista)" style="rounded=1;whiteSpace=wrap;html=1;" vertex="1" parent="WIyWlLk6GJQsqaUBKTNV-1">
          <mxGeometry x="520" y="70" width="150" height="50" as="geometry" />
        </mxCell>
        <mxCell id="2Kkhe6lRTWmixyDbJk0q-40" style="edgeStyle=orthogonalEdgeStyle;rounded=0;orthogonalLoop=1;jettySize=auto;html=1;entryX=0.5;entryY=0;entryDx=0;entryDy=0;" edge="1" parent="WIyWlLk6GJQsqaUBKTNV-1" source="2Kkhe6lRTWmixyDbJk0q-34" target="2Kkhe6lRTWmixyDbJk0q-39">
          <mxGeometry relative="1" as="geometry" />
        </mxCell>
        <mxCell id="2Kkhe6lRTWmixyDbJk0q-34" value="calificacionesSum = 0" style="shape=parallelogram;perimeter=parallelogramPerimeter;whiteSpace=wrap;html=1;fixedSize=1;" vertex="1" parent="WIyWlLk6GJQsqaUBKTNV-1">
          <mxGeometry x="490" y="230" width="220" height="100" as="geometry" />
        </mxCell>
        <mxCell id="2Kkhe6lRTWmixyDbJk0q-37" value="calificaciones.push(&lt;br&gt;parseInt(calificacionPrompt)&lt;br&gt;);" style="rounded=0;whiteSpace=wrap;html=1;" vertex="1" parent="WIyWlLk6GJQsqaUBKTNV-1">
          <mxGeometry x="160" y="860" width="170" height="90" as="geometry" />
        </mxCell>
        <mxCell id="2Kkhe6lRTWmixyDbJk0q-48" style="edgeStyle=orthogonalEdgeStyle;rounded=0;orthogonalLoop=1;jettySize=auto;html=1;" edge="1" parent="WIyWlLk6GJQsqaUBKTNV-1" source="2Kkhe6lRTWmixyDbJk0q-39" target="2Kkhe6lRTWmixyDbJk0q-47">
          <mxGeometry relative="1" as="geometry" />
        </mxCell>
        <mxCell id="2Kkhe6lRTWmixyDbJk0q-39" value="es final de la lista" style="rhombus;whiteSpace=wrap;html=1;" vertex="1" parent="WIyWlLk6GJQsqaUBKTNV-1">
          <mxGeometry x="520" y="370" width="160" height="160" as="geometry" />
        </mxCell>
        <mxCell id="2Kkhe6lRTWmixyDbJk0q-45" value="calificacionSum += calificacion&amp;nbsp;" style="rounded=0;whiteSpace=wrap;html=1;" vertex="1" parent="WIyWlLk6GJQsqaUBKTNV-1">
          <mxGeometry x="530" y="680" width="160" height="100" as="geometry" />
        </mxCell>
        <mxCell id="2Kkhe6lRTWmixyDbJk0q-49" style="edgeStyle=orthogonalEdgeStyle;rounded=0;orthogonalLoop=1;jettySize=auto;html=1;entryX=0.431;entryY=-0.02;entryDx=0;entryDy=0;entryPerimeter=0;" edge="1" parent="WIyWlLk6GJQsqaUBKTNV-1" source="2Kkhe6lRTWmixyDbJk0q-47" target="2Kkhe6lRTWmixyDbJk0q-45">
          <mxGeometry relative="1" as="geometry" />
        </mxCell>
        <mxCell id="2Kkhe6lRTWmixyDbJk0q-47" value="calificacion = valor de n elemeto de la lista" style="rounded=0;whiteSpace=wrap;html=1;" vertex="1" parent="WIyWlLk6GJQsqaUBKTNV-1">
          <mxGeometry x="540" y="570" width="120" height="60" as="geometry" />
        </mxCell>
      </root>
    </mxGraphModel>
  </diagram>
</mxfile>
